<!DOCTYPE svg PUBLIC "-//W3C//DTD SVG 1.1//EN" "http://www.w3.org/Graphics/SVG/1.1/DTD/svg11.dtd">
<!-- Uploaded to: SVG Repo, www.svgrepo.com, Transformed by: SVG Repo Mixer Tools -->
<svg width="100px" height="100px" viewBox="-4.8 -4.8 57.60 57.60" xmlns="http://www.w3.org/2000/svg" fill="#8f9194" stroke="#8f9194" stroke-width="2.16" transform="matrix(1, 0, 0, -1, 0, 0)rotate(0)">
<g id="SVGRepo_bgCarrier" stroke-width="0"/>
<g id="SVGRepo_tracerCarrier" stroke-linecap="round" stroke-linejoin="round" stroke="#CCCCCC" stroke-width="1.536"/>
<g id="SVGRepo_iconCarrier"> <title>dashboard-tile-solid</title> <g id="Layer_2" data-name="Layer 2"> <g id="invisible_box" data-name="invisible box"> <rect width="48" height="48" fill="none"/> </g> <g id="icons_Q2" data-name="icons Q2"> <g> <path d="M20,30H8a2,2,0,0,0-2,2V42a2,2,0,0,0,2,2H20a2,2,0,0,0,2-2V32a2,2,0,0,0-2-2Z"/> <path d="M20,4H8A2,2,0,0,0,6,6V24a2,2,0,0,0,2,2H20a2,2,0,0,0,2-2V6a2,2,0,0,0-2-2Z"/> <path d="M40,4H28a2,2,0,0,0-2,2V16a2,2,0,0,0,2,2H40a2,2,0,0,0,2-2V6a2,2,0,0,0-2-2Z"/> <path d="M40,22H28a2,2,0,0,0-2,2V42a2,2,0,0,0,2,2H40a2,2,0,0,0,2-2V24a2,2,0,0,0-2-2Z"/> </g> </g> </g> </g>
</svg>